<svg width="23" height="23" viewBox="0 0 23 23" fill="none" xmlns="http://www.w3.org/2000/svg">
<path d="M1 11.5C1 5.70101 5.70101 1 11.5 1C17.299 1 22 5.70101 22 11.5C22 17.299 17.299 22 11.5 22C5.70101 22 1 17.299 1 11.5Z" fill="url(#paint0_angular_2425_5645)"/>
<path d="M1 11.5C1 5.70101 5.70101 1 11.5 1C17.299 1 22 5.70101 22 11.5C22 17.299 17.299 22 11.5 22C5.70101 22 1 17.299 1 11.5Z" stroke="#212121"/>
<path d="M5.13353 10.5499L7.93353 7.74986C8.08908 7.59431 8.27242 7.4832 8.48353 7.41653C8.69464 7.34986 8.91131 7.33875 9.13353 7.3832L10.0002 7.56653C9.4002 8.27764 8.92797 8.92208 8.58353 9.49986C8.23908 10.0776 7.90575 10.7776 7.58353 11.5999L5.13353 10.5499ZM8.5502 12.0665C8.80575 11.2665 9.15297 10.511 9.59186 9.79986C10.0308 9.08875 10.5613 8.42208 11.1835 7.79986C12.1613 6.82208 13.278 6.09153 14.5335 5.6082C15.7891 5.12486 16.9613 4.97764 18.0502 5.16653C18.2391 6.25542 18.0946 7.42764 17.6169 8.6832C17.1391 9.93875 16.4113 11.0554 15.4335 12.0332C14.8224 12.6443 14.1558 13.1749 13.4335 13.6249C12.7113 14.0749 11.9502 14.4276 11.1502 14.6832L8.5502 12.0665ZM13.1502 10.0665C13.4058 10.3221 13.7196 10.4499 14.0919 10.4499C14.4641 10.4499 14.778 10.3221 15.0335 10.0665C15.2891 9.81097 15.4169 9.49708 15.4169 9.12486C15.4169 8.75264 15.2891 8.43875 15.0335 8.1832C14.778 7.92764 14.4641 7.79986 14.0919 7.79986C13.7196 7.79986 13.4058 7.92764 13.1502 8.1832C12.8946 8.43875 12.7669 8.75264 12.7669 9.12486C12.7669 9.49708 12.8946 9.81097 13.1502 10.0665ZM12.6835 18.0832L11.6169 15.6332C12.4391 15.311 13.1419 14.9776 13.7252 14.6332C14.3085 14.2888 14.9558 13.8165 15.6669 13.2165L15.8335 14.0832C15.878 14.3054 15.8669 14.5249 15.8002 14.7415C15.7335 14.9582 15.6224 15.1443 15.4669 15.2999L12.6835 18.0832ZM6.2002 14.1999C6.58908 13.811 7.06131 13.6138 7.61686 13.6082C8.17242 13.6026 8.64464 13.7943 9.03353 14.1832C9.42242 14.5721 9.61686 15.0443 9.61686 15.5999C9.61686 16.1554 9.42242 16.6276 9.03353 17.0165C8.75575 17.2943 8.29186 17.5332 7.64186 17.7332C6.99186 17.9332 6.09464 18.111 4.9502 18.2665C5.10575 17.1221 5.28353 16.2276 5.48353 15.5832C5.68353 14.9388 5.92242 14.4776 6.2002 14.1999Z" fill="#212121"/>
<defs>
<radialGradient id="paint0_angular_2425_5645" cx="0" cy="0" r="1" gradientUnits="userSpaceOnUse" gradientTransform="translate(11.5 11.5) rotate(74.0546) scale(6.67343)">
<stop offset="0.112119" stop-color="#FFDB6B"/>
<stop offset="0.181552" stop-color="white"/>
<stop offset="0.296146" stop-color="#FFC002"/>
<stop offset="0.356769" stop-color="#FFE59A"/>
<stop offset="0.492202" stop-color="#E59005"/>
<stop offset="0.610622" stop-color="#FFDB6B"/>
<stop offset="0.673574" stop-color="white"/>
<stop offset="0.801529" stop-color="#FFC002"/>
<stop offset="0.875" stop-color="#FFE59A"/>
<stop offset="1" stop-color="#E59005"/>
</radialGradient>
</defs>
</svg>
