<svg width="23" height="23" viewBox="0 0 23 23" fill="none" xmlns="http://www.w3.org/2000/svg">
<path d="M1 11.5C1 5.70101 5.70101 1 11.5 1C17.299 1 22 5.70101 22 11.5C22 17.299 17.299 22 11.5 22C5.70101 22 1 17.299 1 11.5Z" fill="url(#paint0_angular_2425_5625)"/>
<path d="M1 11.5C1 5.70101 5.70101 1 11.5 1C17.299 1 22 5.70101 22 11.5C22 17.299 17.299 22 11.5 22C5.70101 22 1 17.299 1 11.5Z" stroke="#212121"/>
<path d="M12.1667 18.8333V14.8333L10.7667 13.5L10.1 16.4333L5.5 15.5L5.76667 14.1667L8.96667 14.8333L10.0333 9.43333L8.83333 9.9V12.1667H7.5V9.03333L10.1333 7.9C10.5222 7.73333 10.8083 7.625 10.9917 7.575C11.175 7.525 11.3444 7.5 11.5 7.5C11.7333 7.5 11.95 7.56111 12.15 7.68333C12.35 7.80556 12.5111 7.96667 12.6333 8.16667L13.3 9.23333C13.5889 9.7 13.9806 10.0833 14.475 10.3833C14.9694 10.6833 15.5333 10.8333 16.1667 10.8333V12.1667C15.4333 12.1667 14.7472 12.0139 14.1083 11.7083C13.4694 11.4028 12.9333 11 12.5 10.5L12.1 12.5L13.5 13.8333V18.8333H12.1667ZM12.5 7.16667C12.1333 7.16667 11.8194 7.03611 11.5583 6.775C11.2972 6.51389 11.1667 6.2 11.1667 5.83333C11.1667 5.46667 11.2972 5.15278 11.5583 4.89167C11.8194 4.63056 12.1333 4.5 12.5 4.5C12.8667 4.5 13.1806 4.63056 13.4417 4.89167C13.7028 5.15278 13.8333 5.46667 13.8333 5.83333C13.8333 6.2 13.7028 6.51389 13.4417 6.775C13.1806 7.03611 12.8667 7.16667 12.5 7.16667Z" fill="#212121"/>
<defs>
<radialGradient id="paint0_angular_2425_5625" cx="0" cy="0" r="1" gradientUnits="userSpaceOnUse" gradientTransform="translate(11.5 11.5) rotate(74.0546) scale(6.67343)">
<stop offset="0.112119" stop-color="#CFCFD1"/>
<stop offset="0.181552" stop-color="white"/>
<stop offset="0.296146" stop-color="#BDBBBF"/>
<stop offset="0.356769" stop-color="#E5E8EF"/>
<stop offset="0.492202" stop-color="#B8B9BB"/>
<stop offset="0.610622" stop-color="#CFCFD1"/>
<stop offset="0.673574" stop-color="white"/>
<stop offset="0.801529" stop-color="#BDBBBF"/>
<stop offset="0.875" stop-color="#E5E8EF"/>
<stop offset="1" stop-color="#B8B9BB"/>
</radialGradient>
</defs>
</svg>
