<svg width="23" height="23" viewBox="0 0 23 23" fill="none" xmlns="http://www.w3.org/2000/svg">
<path d="M1 11.5C1 5.70101 5.70101 1 11.5 1C17.299 1 22 5.70101 22 11.5C22 17.299 17.299 22 11.5 22C5.70101 22 1 17.299 1 11.5Z" fill="url(#paint0_angular_2425_5629)"/>
<path d="M1 11.5C1 5.70101 5.70101 1 11.5 1C17.299 1 22 5.70101 22 11.5C22 17.299 17.299 22 11.5 22C5.70101 22 1 17.299 1 11.5Z" stroke="#212121"/>
<g clip-path="url(#clip0_2425_5629)">
<path d="M6.16667 16.1668C5.43333 16.1668 4.80556 15.9057 4.28333 15.3835C3.76111 14.8613 3.5 14.2335 3.5 13.5002C3.5 12.8668 3.70278 12.3057 4.10833 11.8168C4.51389 11.3279 5.03333 11.0224 5.66667 10.9002L5.2 10.5002H3.5V9.50016H6.5L8.16667 10.5002L10.8333 9.50016H12.9333L11.9 8.16683H10.1667V6.8335H12.5333L13.9333 8.6335L16.1667 7.50016V9.50016H14.6333L15.8 11.0335C15.9667 10.9668 16.1361 10.9168 16.3083 10.8835C16.4806 10.8502 16.6556 10.8335 16.8333 10.8335C17.5667 10.8335 18.1944 11.0946 18.7167 11.6168C19.2389 12.1391 19.5 12.7668 19.5 13.5002C19.5 14.2335 19.2389 14.8613 18.7167 15.3835C18.1944 15.9057 17.5667 16.1668 16.8333 16.1668C16.1 16.1668 15.4722 15.9057 14.95 15.3835C14.4278 14.8613 14.1667 14.2335 14.1667 13.5002C14.1667 13.2002 14.2194 12.9085 14.325 12.6252C14.4306 12.3418 14.5778 12.0779 14.7667 11.8335L14.4333 11.4335L12.1667 14.8335H10.1667L8.83333 13.6668C8.77778 14.3668 8.49444 14.9585 7.98333 15.4418C7.47222 15.9252 6.86667 16.1668 6.16667 16.1668ZM6.16667 14.8335C6.53333 14.8335 6.84722 14.7029 7.10833 14.4418C7.36944 14.1807 7.5 13.8668 7.5 13.5002C7.5 13.1335 7.36944 12.8196 7.10833 12.5585C6.84722 12.2974 6.53333 12.1668 6.16667 12.1668C5.8 12.1668 5.48611 12.2974 5.225 12.5585C4.96389 12.8196 4.83333 13.1335 4.83333 13.5002C4.83333 13.8668 4.96389 14.1807 5.225 14.4418C5.48611 14.7029 5.8 14.8335 6.16667 14.8335ZM16.8333 14.8335C17.2 14.8335 17.5139 14.7029 17.775 14.4418C18.0361 14.1807 18.1667 13.8668 18.1667 13.5002C18.1667 13.1335 18.0361 12.8196 17.775 12.5585C17.5139 12.2974 17.2 12.1668 16.8333 12.1668C16.4667 12.1668 16.1528 12.2974 15.8917 12.5585C15.6306 12.8196 15.5 13.1335 15.5 13.5002C15.5 13.8668 15.6306 14.1807 15.8917 14.4418C16.1528 14.7029 16.4667 14.8335 16.8333 14.8335Z" fill="#212121"/>
</g>
<defs>
<radialGradient id="paint0_angular_2425_5629" cx="0" cy="0" r="1" gradientUnits="userSpaceOnUse" gradientTransform="translate(11.5 11.5) rotate(74.0546) scale(6.67343)">
<stop offset="0.112119" stop-color="#DB9D77"/>
<stop offset="0.181552" stop-color="white"/>
<stop offset="0.296146" stop-color="#C79177"/>
<stop offset="0.356769" stop-color="#FDCEAA"/>
<stop offset="0.492202" stop-color="#995F4A"/>
<stop offset="0.610622" stop-color="#DB9D77"/>
<stop offset="0.673574" stop-color="white"/>
<stop offset="0.801529" stop-color="#C79177"/>
<stop offset="0.875" stop-color="#FDCEAA"/>
<stop offset="1" stop-color="#995F4A"/>
</radialGradient>
<clipPath id="clip0_2425_5629">
<rect width="16" height="16" fill="white" transform="translate(3.5 3.5)"/>
</clipPath>
</defs>
</svg>
