<svg width="23" height="23" viewBox="0 0 23 23" fill="none" xmlns="http://www.w3.org/2000/svg">
<path d="M1 11.5C1 5.70101 5.70101 1 11.5 1C17.299 1 22 5.70101 22 11.5C22 17.299 17.299 22 11.5 22C5.70101 22 1 17.299 1 11.5Z" fill="url(#paint0_angular_2425_5633)"/>
<path d="M1 11.5C1 5.70101 5.70101 1 11.5 1C17.299 1 22 5.70101 22 11.5C22 17.299 17.299 22 11.5 22C5.70101 22 1 17.299 1 11.5Z" stroke="#212121"/>
<path d="M7.5 16.1668V16.8335C7.5 17.0224 7.43611 17.1807 7.30833 17.3085C7.18056 17.4363 7.02222 17.5002 6.83333 17.5002H6.16667C5.97778 17.5002 5.81944 17.4363 5.69167 17.3085C5.56389 17.1807 5.5 17.0224 5.5 16.8335V11.5002L6.9 7.50016C6.96667 7.30016 7.08611 7.13905 7.25833 7.01683C7.43056 6.89461 7.62222 6.8335 7.83333 6.8335H15.1667C15.3778 6.8335 15.5694 6.89461 15.7417 7.01683C15.9139 7.13905 16.0333 7.30016 16.1 7.50016L17.5 11.5002V16.8335C17.5 17.0224 17.4361 17.1807 17.3083 17.3085C17.1806 17.4363 17.0222 17.5002 16.8333 17.5002H16.1667C15.9778 17.5002 15.8194 17.4363 15.6917 17.3085C15.5639 17.1807 15.5 17.0224 15.5 16.8335V16.1668H7.5ZM7.36667 10.1668H15.6333L14.9333 8.16683H8.06667L7.36667 10.1668ZM8.5 14.1668C8.77778 14.1668 9.01389 14.0696 9.20833 13.8752C9.40278 13.6807 9.5 13.4446 9.5 13.1668C9.5 12.8891 9.40278 12.6529 9.20833 12.4585C9.01389 12.2641 8.77778 12.1668 8.5 12.1668C8.22222 12.1668 7.98611 12.2641 7.79167 12.4585C7.59722 12.6529 7.5 12.8891 7.5 13.1668C7.5 13.4446 7.59722 13.6807 7.79167 13.8752C7.98611 14.0696 8.22222 14.1668 8.5 14.1668ZM14.5 14.1668C14.7778 14.1668 15.0139 14.0696 15.2083 13.8752C15.4028 13.6807 15.5 13.4446 15.5 13.1668C15.5 12.8891 15.4028 12.6529 15.2083 12.4585C15.0139 12.2641 14.7778 12.1668 14.5 12.1668C14.2222 12.1668 13.9861 12.2641 13.7917 12.4585C13.5972 12.6529 13.5 12.8891 13.5 13.1668C13.5 13.4446 13.5972 13.6807 13.7917 13.8752C13.9861 14.0696 14.2222 14.1668 14.5 14.1668Z" fill="#212121"/>
<defs>
<radialGradient id="paint0_angular_2425_5633" cx="0" cy="0" r="1" gradientUnits="userSpaceOnUse" gradientTransform="translate(11.5 11.5) rotate(74.0546) scale(6.67343)">
<stop offset="0.112119" stop-color="#FFEEAA"/>
<stop offset="0.181552" stop-color="white"/>
<stop offset="0.296146" stop-color="#DDCC88"/>
<stop offset="0.356769" stop-color="#FFEEAA"/>
<stop offset="0.492202" stop-color="#AA9955"/>
<stop offset="0.610622" stop-color="#FFEEAA"/>
<stop offset="0.673574" stop-color="white"/>
<stop offset="0.801529" stop-color="#DDCC88"/>
<stop offset="0.875" stop-color="#FFEEAA"/>
<stop offset="1" stop-color="#AA9955"/>
</radialGradient>
</defs>
</svg>
