<svg width="23" height="23" viewBox="0 0 23 23" fill="none" xmlns="http://www.w3.org/2000/svg">
<path d="M1 11.5C1 5.70101 5.70101 1 11.5 1C17.299 1 22 5.70101 22 11.5C22 17.299 17.299 22 11.5 22C5.70101 22 1 17.299 1 11.5Z" fill="url(#paint0_angular_2425_5641)"/>
<path d="M1 11.5C1 5.70101 5.70101 1 11.5 1C17.299 1 22 5.70101 22 11.5C22 17.299 17.299 22 11.5 22C5.70101 22 1 17.299 1 11.5Z" stroke="#212121"/>
<path d="M5.50016 12.4998L10.8335 4.83317V12.4998H5.50016ZM11.8335 12.4998C11.9668 12.1887 12.1113 11.6443 12.2668 10.8665C12.4224 10.0887 12.5002 9.29984 12.5002 8.49984C12.5002 7.69984 12.4252 6.87762 12.2752 6.03317C12.1252 5.18873 11.9779 4.5665 11.8335 4.1665C12.5113 4.3665 13.1863 4.73873 13.8585 5.28317C14.5307 5.82762 15.1363 6.47762 15.6752 7.23317C16.2141 7.98873 16.6529 8.81928 16.9918 9.72484C17.3307 10.6304 17.5002 11.5554 17.5002 12.4998H11.8335ZM9.50016 16.1665C9.10016 16.1665 8.72794 16.0721 8.3835 15.8832C8.03905 15.6943 7.74461 15.4554 7.50016 15.1665C7.34461 15.3332 7.17516 15.4887 6.99183 15.6332C6.8085 15.7776 6.60572 15.8943 6.3835 15.9832C5.99461 15.6943 5.66405 15.3359 5.39183 14.9082C5.11961 14.4804 4.9335 14.0109 4.8335 13.4998H18.1668C18.0668 14.0109 17.8807 14.4804 17.6085 14.9082C17.3363 15.3359 17.0057 15.6943 16.6168 15.9832C16.3946 15.8943 16.1918 15.7776 16.0085 15.6332C15.8252 15.4887 15.6557 15.3332 15.5002 15.1665C15.2446 15.4554 14.9474 15.6943 14.6085 15.8832C14.2696 16.0721 13.9002 16.1665 13.5002 16.1665C13.1002 16.1665 12.7279 16.0721 12.3835 15.8832C12.0391 15.6943 11.7446 15.4554 11.5002 15.1665C11.2557 15.4554 10.9613 15.6943 10.6168 15.8832C10.2724 16.0721 9.90016 16.1665 9.50016 16.1665ZM4.8335 18.8332V17.4998H5.50016C5.85572 17.4998 6.20294 17.4443 6.54183 17.3332C6.88072 17.2221 7.20016 17.0554 7.50016 16.8332C7.80016 17.0554 8.11961 17.2193 8.4585 17.3248C8.79738 17.4304 9.14461 17.4832 9.50016 17.4832C9.85572 17.4832 10.2002 17.4304 10.5335 17.3248C10.8668 17.2193 11.1891 17.0554 11.5002 16.8332C11.8002 17.0554 12.1196 17.2193 12.4585 17.3248C12.7974 17.4304 13.1446 17.4832 13.5002 17.4832C13.8557 17.4832 14.2002 17.4304 14.5335 17.3248C14.8668 17.2193 15.1891 17.0554 15.5002 16.8332C15.8113 17.0554 16.1335 17.2221 16.4668 17.3332C16.8002 17.4443 17.1446 17.4998 17.5002 17.4998H18.1668V18.8332H17.5002C17.1557 18.8332 16.8168 18.7915 16.4835 18.7082C16.1502 18.6248 15.8224 18.4998 15.5002 18.3332C15.1779 18.4998 14.8502 18.6248 14.5168 18.7082C14.1835 18.7915 13.8446 18.8332 13.5002 18.8332C13.1557 18.8332 12.8168 18.7915 12.4835 18.7082C12.1502 18.6248 11.8224 18.4998 11.5002 18.3332C11.1779 18.4998 10.8502 18.6248 10.5168 18.7082C10.1835 18.7915 9.84461 18.8332 9.50016 18.8332C9.15572 18.8332 8.81683 18.7915 8.4835 18.7082C8.15016 18.6248 7.82238 18.4998 7.50016 18.3332C7.17794 18.4998 6.85016 18.6248 6.51683 18.7082C6.1835 18.7915 5.84461 18.8332 5.50016 18.8332H4.8335Z" fill="#212121"/>
<defs>
<radialGradient id="paint0_angular_2425_5641" cx="0" cy="0" r="1" gradientUnits="userSpaceOnUse" gradientTransform="translate(11.5 11.5) rotate(74.0546) scale(6.67343)">
<stop offset="0.112119" stop-color="#ECC6BF"/>
<stop offset="0.181552" stop-color="white"/>
<stop offset="0.296146" stop-color="#D0AAA3"/>
<stop offset="0.356769" stop-color="#EFCAC4"/>
<stop offset="0.492202" stop-color="#B08A84"/>
<stop offset="0.610622" stop-color="#ECC6BF"/>
<stop offset="0.673574" stop-color="white"/>
<stop offset="0.801529" stop-color="#D0AAA3"/>
<stop offset="0.875" stop-color="#EFCAC4"/>
<stop offset="1" stop-color="#B08A84"/>
</radialGradient>
</defs>
</svg>
