<svg width="23" height="23" viewBox="0 0 23 23" fill="none" xmlns="http://www.w3.org/2000/svg">
<path d="M1 11.5C1 5.70101 5.70101 1 11.5 1C17.299 1 22 5.70101 22 11.5C22 17.299 17.299 22 11.5 22C5.70101 22 1 17.299 1 11.5Z" fill="url(#paint0_angular_2136_14294)"/>
<path d="M1 11.5C1 5.70101 5.70101 1 11.5 1C17.299 1 22 5.70101 22 11.5C22 17.299 17.299 22 11.5 22C5.70101 22 1 17.299 1 11.5Z" stroke="#212121"/>
<path d="M10.1166 17.5832L8.46657 14.5165L5.3999 12.8665L6.58324 11.6998L8.9999 12.1165L10.6999 10.4165L5.41657 8.1665L6.81657 6.73317L13.2332 7.8665L15.2999 5.79984C15.5555 5.54428 15.8721 5.4165 16.2499 5.4165C16.6277 5.4165 16.9443 5.54428 17.1999 5.79984C17.4555 6.05539 17.5832 6.36928 17.5832 6.7415C17.5832 7.11373 17.4555 7.42762 17.1999 7.68317L15.1166 9.7665L16.2499 16.1665L14.8332 17.5832L12.5666 12.2998L10.8666 13.9998L11.2999 16.3998L10.1166 17.5832Z" fill="#212121"/>
<defs>
<radialGradient id="paint0_angular_2136_14294" cx="0" cy="0" r="1" gradientUnits="userSpaceOnUse" gradientTransform="translate(11.5 11.5) rotate(74.0546) scale(6.67343)">
<stop offset="0.112119" stop-color="#E3E5EA"/>
<stop offset="0.181552" stop-color="white"/>
<stop offset="0.296146" stop-color="#B4B4B9"/>
<stop offset="0.356769" stop-color="#ECECEF"/>
<stop offset="0.492202" stop-color="#706E6F"/>
<stop offset="0.610622" stop-color="#E3E5EA"/>
<stop offset="0.673574" stop-color="white"/>
<stop offset="0.801529" stop-color="#B4B4B9"/>
<stop offset="0.875" stop-color="#ECECEF"/>
<stop offset="1" stop-color="#706E6F"/>
</radialGradient>
</defs>
</svg>
