<svg width="338" height="96" viewBox="0 0 338 96" fill="none" xmlns="http://www.w3.org/2000/svg">
<ellipse cx="48.7622" cy="81.5653" rx="30.2934" ry="14.4347" fill="#2B2B2B"/>
<path d="M17.6431 27.5343C17.6431 19.0265 29.1279 8.97677e-06 31.2918 0C33.4556 -8.97677e-06 49.369 27.5343 49.369 27.5343C36.9793 30.5672 30.0329 30.4593 17.6431 27.5343Z" fill="#FF0000"/>
<path d="M49.498 27.8391C60.8292 30.7688 67.3541 30.865 79.3577 27.8391C79.3577 32.106 74.3193 42.867 68.3542 53.6174C61.6699 56.4797 57.5262 56.4128 49.498 53.6174V27.8391Z" fill="#00ADF0"/>
<path d="M66.2084 0C68.2057 0 79.3577 17.789 79.3577 27.5343C67.3541 30.5602 60.8292 30.464 49.498 27.5343C49.498 27.5343 64.211 0 66.2084 0Z" fill="#ED008C"/>
<path d="M49.6201 81.5538C47.634 81.5538 38.0723 67.7235 29.96 53.9651C38.0298 56.0951 42.9492 55.7505 49.6201 53.9651V81.5538Z" fill="#00FF01"/>
<path d="M49.369 27.8391C36.9793 30.872 30.0329 30.7641 17.6431 27.8391C17.6431 31.6229 23.211 42.5971 29.7088 53.6174C37.7786 55.7474 42.698 55.4028 49.369 53.6174V27.8391Z" fill="#0000FF"/>
<path d="M68.3542 53.9651C60.6954 67.7682 51.5089 81.5538 49.498 81.5538V53.9651C57.5262 56.7605 61.6699 56.8274 68.3542 53.9651Z" fill="#FFF401"/>
<path d="M126.252 21.2852H127.729V29.3711H127.131C124.459 29.3711 122.08 29.7695 119.994 30.5664C117.908 31.3633 116.139 32.5 114.686 33.9766C113.256 35.4297 112.154 37.1875 111.381 39.25C110.631 41.3125 110.256 43.6211 110.256 46.1758V54.6836C110.256 56.5117 110.432 58.1289 110.783 59.5352C111.158 60.918 111.686 62.0781 112.365 63.0156C113.068 63.9297 113.889 64.6211 114.826 65.0898C115.764 65.5352 116.818 65.7578 117.99 65.7578C119.092 65.7578 120.088 65.5234 120.979 65.0547C121.893 64.5859 122.666 63.9297 123.299 63.0859C123.955 62.2188 124.447 61.2109 124.775 60.0625C125.127 58.8906 125.303 57.6133 125.303 56.2305C125.303 54.8477 125.127 53.5703 124.775 52.3984C124.447 51.2266 123.955 50.2188 123.299 49.375C122.643 48.5078 121.846 47.8398 120.908 47.3711C119.971 46.9023 118.916 46.668 117.744 46.668C116.15 46.668 114.744 47.043 113.525 47.793C112.33 48.5195 111.393 49.457 110.713 50.6055C110.033 51.7539 109.67 52.9609 109.623 54.2266L106.564 52.2578C106.635 50.4531 107.01 48.7422 107.689 47.125C108.393 45.5078 109.354 44.0781 110.572 42.8359C111.814 41.5703 113.303 40.5859 115.037 39.8828C116.772 39.1562 118.729 38.793 120.908 38.793C123.299 38.793 125.397 39.25 127.201 40.1641C129.029 41.0781 130.553 42.332 131.772 43.9258C132.99 45.5195 133.904 47.3594 134.514 49.4453C135.123 51.5312 135.428 53.7578 135.428 56.125C135.428 58.6094 135.018 60.918 134.197 63.0508C133.4 65.1836 132.24 67.0469 130.717 68.6406C129.217 70.2344 127.412 71.4766 125.303 72.3672C123.193 73.2578 120.826 73.7031 118.201 73.7031C115.482 73.7031 113.01 73.2109 110.783 72.2266C108.58 71.2188 106.682 69.8125 105.088 68.0078C103.494 66.2031 102.264 64.0586 101.397 61.5742C100.553 59.0898 100.131 56.3711 100.131 53.418V49.4805C100.131 45.3555 100.729 41.582 101.924 38.1602C103.143 34.7148 104.889 31.7383 107.162 29.2305C109.436 26.6992 112.178 24.7422 115.389 23.3594C118.6 21.9766 122.221 21.2852 126.252 21.2852ZM153.134 63.1562L161.044 34.9609H167.478L165.403 46.0352L157.493 73H152.114L153.134 63.1562ZM149.126 34.9609L154.786 63.1211L155.313 73H148.985L139.353 34.9609H149.126ZM174.72 62.6641L180.239 34.9609H190.048L180.415 73H174.122L174.72 62.6641ZM168.356 34.9609L176.231 62.9453L177.321 73H171.907L163.997 46.0703L161.993 34.9609H168.356ZM221.219 21.2852H222.695V29.3711H222.098C219.426 29.3711 217.047 29.7695 214.961 30.5664C212.875 31.3633 211.105 32.5 209.652 33.9766C208.223 35.4297 207.121 37.1875 206.348 39.25C205.598 41.3125 205.223 43.6211 205.223 46.1758V54.6836C205.223 56.5117 205.398 58.1289 205.75 59.5352C206.125 60.918 206.652 62.0781 207.332 63.0156C208.035 63.9297 208.855 64.6211 209.793 65.0898C210.73 65.5352 211.785 65.7578 212.957 65.7578C214.059 65.7578 215.055 65.5234 215.945 65.0547C216.859 64.5859 217.633 63.9297 218.266 63.0859C218.922 62.2188 219.414 61.2109 219.742 60.0625C220.094 58.8906 220.27 57.6133 220.27 56.2305C220.27 54.8477 220.094 53.5703 219.742 52.3984C219.414 51.2266 218.922 50.2188 218.266 49.375C217.609 48.5078 216.812 47.8398 215.875 47.3711C214.938 46.9023 213.883 46.668 212.711 46.668C211.117 46.668 209.711 47.043 208.492 47.793C207.297 48.5195 206.359 49.457 205.68 50.6055C205 51.7539 204.637 52.9609 204.59 54.2266L201.531 52.2578C201.602 50.4531 201.977 48.7422 202.656 47.125C203.359 45.5078 204.32 44.0781 205.539 42.8359C206.781 41.5703 208.27 40.5859 210.004 39.8828C211.738 39.1562 213.695 38.793 215.875 38.793C218.266 38.793 220.363 39.25 222.168 40.1641C223.996 41.0781 225.52 42.332 226.738 43.9258C227.957 45.5195 228.871 47.3594 229.48 49.4453C230.09 51.5312 230.395 53.7578 230.395 56.125C230.395 58.6094 229.984 60.918 229.164 63.0508C228.367 65.1836 227.207 67.0469 225.684 68.6406C224.184 70.2344 222.379 71.4766 220.27 72.3672C218.16 73.2578 215.793 73.7031 213.168 73.7031C210.449 73.7031 207.977 73.2109 205.75 72.2266C203.547 71.2188 201.648 69.8125 200.055 68.0078C198.461 66.2031 197.23 64.0586 196.363 61.5742C195.52 59.0898 195.098 56.3711 195.098 53.418V49.4805C195.098 45.3555 195.695 41.582 196.891 38.1602C198.109 34.7148 199.855 31.7383 202.129 29.2305C204.402 26.6992 207.145 24.7422 210.355 23.3594C213.566 21.9766 217.188 21.2852 221.219 21.2852ZM248.101 63.1562L256.011 34.9609H262.444L260.37 46.0352L252.46 73H247.081L248.101 63.1562ZM244.093 34.9609L249.753 63.1211L250.28 73H243.952L234.319 34.9609H244.093ZM269.686 62.6641L275.206 34.9609H285.015L275.382 73H269.089L269.686 62.6641ZM263.323 34.9609L271.198 62.9453L272.288 73H266.874L258.964 46.0703L256.96 34.9609H263.323ZM325.256 42.6602V50.8867H298.537V42.6602H325.256ZM301.666 21.8125V73H291.119V21.8125H301.666ZM332.779 21.8125V73H322.268V21.8125H332.779Z" fill="#212121"/>
</svg>
