<svg width="58" height="88" viewBox="0 0 58 88" fill="none" xmlns="http://www.w3.org/2000/svg">
<ellipse cx="29.2417" cy="74.7679" rx="27.769" ry="13.2318" fill="#2B2B2B"/>
<path d="M0.714844 25.2398C0.714844 17.441 11.2427 8.22871e-06 13.2261 0C15.2096 -8.2287e-06 29.7969 25.2398 29.7969 25.2398C18.4398 28.0199 12.0722 27.921 0.714844 25.2398Z" fill="#FF0000"/>
<path d="M29.9141 25.5195C40.3009 28.205 46.2821 28.2932 57.2854 25.5195C57.2854 29.4308 52.6669 39.2951 47.1989 49.1496C41.0716 51.7734 37.2732 51.7121 29.9141 49.1496V25.5195Z" fill="#00ADF0"/>
<path d="M45.2319 0C47.0628 0 57.2854 16.3066 57.2854 25.2398C46.2821 28.0135 40.3009 27.9253 29.9141 25.2398C29.9141 25.2398 43.4009 0 45.2319 0Z" fill="#ED008C"/>
<path d="M30.0267 74.7575C28.2061 74.7575 19.4412 62.0797 12.0049 49.4678C19.4022 51.4203 23.9117 51.1044 30.0267 49.4678V74.7575Z" fill="#00FF01"/>
<path d="M29.7969 25.5195C18.4398 28.2997 12.0722 28.2008 0.714844 25.5195C0.714844 28.988 5.81874 39.0477 11.7751 49.1496C19.1724 51.1021 23.6819 50.7863 29.7969 49.1496V25.5195Z" fill="#0000FF"/>
<path d="M47.1989 49.4678C40.1783 62.1206 31.7573 74.7575 29.9141 74.7575V49.4678C37.2732 52.0303 41.0716 52.0915 47.1989 49.4678Z" fill="#FFF401"/>
</svg>
