<svg width="437" height="176" viewBox="0 0 437 176" fill="none" xmlns="http://www.w3.org/2000/svg">
<rect width="437" height="176" rx="80" fill="white"/>
<ellipse cx="88.2618" cy="121.565" rx="30.2934" ry="14.4347" fill="#2B2B2B"/>
<path d="M57.1429 67.5343C57.1429 59.0265 68.6278 40 70.7916 40C72.9554 40 88.8688 67.5343 88.8688 67.5343C76.4792 70.5672 69.5327 70.4593 57.1429 67.5343Z" fill="#FF0000"/>
<path d="M88.9976 67.8391C100.329 70.7687 106.854 70.8649 118.857 67.8391C118.857 72.1059 113.819 82.8669 107.854 93.6173C101.169 96.4796 97.0257 96.4128 88.9976 93.6173V67.8391Z" fill="#00ADF0"/>
<path d="M105.708 40C107.705 40 118.857 57.789 118.857 67.5343C106.854 70.5602 100.329 70.464 88.9976 67.5343C88.9976 67.5343 103.711 40 105.708 40Z" fill="#ED008C"/>
<path d="M89.1202 121.554C87.1341 121.554 77.5723 107.723 69.46 93.965C77.5299 96.095 82.4492 95.7505 89.1202 93.965V121.554Z" fill="#00FF01"/>
<path d="M88.8688 67.8391C76.4792 70.8719 69.5327 70.764 57.1429 67.8391C57.1429 71.6229 62.7108 82.597 69.2086 93.6173C77.2784 95.7473 82.1978 95.4028 88.8688 93.6173V67.8391Z" fill="#0000FF"/>
<path d="M107.854 93.965C100.195 107.768 91.0084 121.554 88.9976 121.554V93.965C97.0257 96.7605 101.169 96.8273 107.854 93.965Z" fill="#FFF401"/>
<path d="M165.752 61.2852H167.229V69.3711H166.631C163.959 69.3711 161.58 69.7695 159.494 70.5664C157.408 71.3633 155.639 72.5 154.186 73.9766C152.756 75.4297 151.654 77.1875 150.881 79.25C150.131 81.3125 149.756 83.6211 149.756 86.1758V94.6836C149.756 96.5117 149.932 98.1289 150.283 99.5352C150.658 100.918 151.186 102.078 151.865 103.016C152.568 103.93 153.389 104.621 154.326 105.09C155.264 105.535 156.318 105.758 157.49 105.758C158.592 105.758 159.588 105.523 160.479 105.055C161.393 104.586 162.166 103.93 162.799 103.086C163.455 102.219 163.947 101.211 164.275 100.062C164.627 98.8906 164.803 97.6133 164.803 96.2305C164.803 94.8477 164.627 93.5703 164.275 92.3984C163.947 91.2266 163.455 90.2188 162.799 89.375C162.143 88.5078 161.346 87.8398 160.408 87.3711C159.471 86.9023 158.416 86.668 157.244 86.668C155.65 86.668 154.244 87.043 153.025 87.793C151.83 88.5195 150.893 89.457 150.213 90.6055C149.533 91.7539 149.17 92.9609 149.123 94.2266L146.064 92.2578C146.135 90.4531 146.51 88.7422 147.189 87.125C147.893 85.5078 148.854 84.0781 150.072 82.8359C151.314 81.5703 152.803 80.5859 154.537 79.8828C156.272 79.1562 158.229 78.793 160.408 78.793C162.799 78.793 164.897 79.25 166.701 80.1641C168.529 81.0781 170.053 82.332 171.272 83.9258C172.49 85.5195 173.404 87.3594 174.014 89.4453C174.623 91.5312 174.928 93.7578 174.928 96.125C174.928 98.6094 174.518 100.918 173.697 103.051C172.9 105.184 171.74 107.047 170.217 108.641C168.717 110.234 166.912 111.477 164.803 112.367C162.693 113.258 160.326 113.703 157.701 113.703C154.982 113.703 152.51 113.211 150.283 112.227C148.08 111.219 146.182 109.812 144.588 108.008C142.994 106.203 141.764 104.059 140.897 101.574C140.053 99.0898 139.631 96.3711 139.631 93.418V89.4805C139.631 85.3555 140.229 81.582 141.424 78.1602C142.643 74.7148 144.389 71.7383 146.662 69.2305C148.936 66.6992 151.678 64.7422 154.889 63.3594C158.1 61.9766 161.721 61.2852 165.752 61.2852ZM192.634 103.156L200.544 74.9609H206.978L204.903 86.0352L196.993 113H191.614L192.634 103.156ZM188.626 74.9609L194.286 103.121L194.813 113H188.485L178.853 74.9609H188.626ZM214.22 102.664L219.739 74.9609H229.548L219.915 113H213.622L214.22 102.664ZM207.856 74.9609L215.731 102.945L216.821 113H211.407L203.497 86.0703L201.493 74.9609H207.856ZM260.719 61.2852H262.195V69.3711H261.598C258.926 69.3711 256.547 69.7695 254.461 70.5664C252.375 71.3633 250.605 72.5 249.152 73.9766C247.723 75.4297 246.621 77.1875 245.848 79.25C245.098 81.3125 244.723 83.6211 244.723 86.1758V94.6836C244.723 96.5117 244.898 98.1289 245.25 99.5352C245.625 100.918 246.152 102.078 246.832 103.016C247.535 103.93 248.355 104.621 249.293 105.09C250.23 105.535 251.285 105.758 252.457 105.758C253.559 105.758 254.555 105.523 255.445 105.055C256.359 104.586 257.133 103.93 257.766 103.086C258.422 102.219 258.914 101.211 259.242 100.062C259.594 98.8906 259.77 97.6133 259.77 96.2305C259.77 94.8477 259.594 93.5703 259.242 92.3984C258.914 91.2266 258.422 90.2188 257.766 89.375C257.109 88.5078 256.312 87.8398 255.375 87.3711C254.438 86.9023 253.383 86.668 252.211 86.668C250.617 86.668 249.211 87.043 247.992 87.793C246.797 88.5195 245.859 89.457 245.18 90.6055C244.5 91.7539 244.137 92.9609 244.09 94.2266L241.031 92.2578C241.102 90.4531 241.477 88.7422 242.156 87.125C242.859 85.5078 243.82 84.0781 245.039 82.8359C246.281 81.5703 247.77 80.5859 249.504 79.8828C251.238 79.1562 253.195 78.793 255.375 78.793C257.766 78.793 259.863 79.25 261.668 80.1641C263.496 81.0781 265.02 82.332 266.238 83.9258C267.457 85.5195 268.371 87.3594 268.98 89.4453C269.59 91.5312 269.895 93.7578 269.895 96.125C269.895 98.6094 269.484 100.918 268.664 103.051C267.867 105.184 266.707 107.047 265.184 108.641C263.684 110.234 261.879 111.477 259.77 112.367C257.66 113.258 255.293 113.703 252.668 113.703C249.949 113.703 247.477 113.211 245.25 112.227C243.047 111.219 241.148 109.812 239.555 108.008C237.961 106.203 236.73 104.059 235.863 101.574C235.02 99.0898 234.598 96.3711 234.598 93.418V89.4805C234.598 85.3555 235.195 81.582 236.391 78.1602C237.609 74.7148 239.355 71.7383 241.629 69.2305C243.902 66.6992 246.645 64.7422 249.855 63.3594C253.066 61.9766 256.688 61.2852 260.719 61.2852ZM287.601 103.156L295.511 74.9609H301.944L299.87 86.0352L291.96 113H286.581L287.601 103.156ZM283.593 74.9609L289.253 103.121L289.78 113H283.452L273.819 74.9609H283.593ZM309.186 102.664L314.706 74.9609H324.515L314.882 113H308.589L309.186 102.664ZM302.823 74.9609L310.698 102.945L311.788 113H306.374L298.464 86.0703L296.46 74.9609H302.823ZM364.756 82.6602V90.8867H338.037V82.6602H364.756ZM341.166 61.8125V113H330.619V61.8125H341.166ZM372.279 61.8125V113H361.768V61.8125H372.279Z" fill="#212121"/>
</svg>
