<svg width="337" height="96" viewBox="0 0 337 96" fill="none" xmlns="http://www.w3.org/2000/svg">
<ellipse cx="48.2617" cy="81.5654" rx="30.2934" ry="14.4347" fill="white"/>
<path d="M17.1428 27.5343C17.1428 19.0265 28.6277 8.97677e-06 30.7915 0C32.9553 -8.97677e-06 48.8687 27.5343 48.8687 27.5343C36.4791 30.5672 29.5327 30.4593 17.1428 27.5343Z" fill="#FF0000"/>
<path d="M48.9976 27.8391C60.3287 30.7687 66.8536 30.8649 78.8572 27.8391C78.8572 32.1059 73.8188 42.8669 67.8537 53.6173C61.1694 56.4796 57.0257 56.4128 48.9976 53.6173V27.8391Z" fill="#00ADF0"/>
<path d="M65.7079 0C67.7053 0 78.8572 17.789 78.8572 27.5343C66.8536 30.5602 60.3287 30.464 48.9976 27.5343C48.9976 27.5343 63.7105 0 65.7079 0Z" fill="#ED008C"/>
<path d="M49.1201 81.5538C47.134 81.5538 37.5723 67.7235 29.46 53.965C37.5298 56.095 42.4492 55.7505 49.1201 53.965V81.5538Z" fill="#00FF01"/>
<path d="M48.8687 27.8391C36.4791 30.8719 29.5327 30.764 17.1428 27.8391C17.1428 31.6229 22.7107 42.597 29.2085 53.6173C37.2784 55.7473 42.1978 55.4028 48.8687 53.6173V27.8391Z" fill="#0000FF"/>
<path d="M67.8537 53.965C60.1949 67.7681 51.0084 81.5538 48.9976 81.5538V53.965C57.0257 56.7605 61.1694 56.8273 67.8537 53.965Z" fill="#FFF401"/>
<path d="M125.752 21.2852H127.229V29.3711H126.631C123.959 29.3711 121.58 29.7695 119.494 30.5664C117.408 31.3633 115.639 32.5 114.186 33.9766C112.756 35.4297 111.654 37.1875 110.881 39.25C110.131 41.3125 109.756 43.6211 109.756 46.1758V54.6836C109.756 56.5117 109.932 58.1289 110.283 59.5352C110.658 60.918 111.186 62.0781 111.865 63.0156C112.568 63.9297 113.389 64.6211 114.326 65.0898C115.264 65.5352 116.318 65.7578 117.49 65.7578C118.592 65.7578 119.588 65.5234 120.479 65.0547C121.393 64.5859 122.166 63.9297 122.799 63.0859C123.455 62.2188 123.947 61.2109 124.275 60.0625C124.627 58.8906 124.803 57.6133 124.803 56.2305C124.803 54.8477 124.627 53.5703 124.275 52.3984C123.947 51.2266 123.455 50.2188 122.799 49.375C122.143 48.5078 121.346 47.8398 120.408 47.3711C119.471 46.9023 118.416 46.668 117.244 46.668C115.65 46.668 114.244 47.043 113.025 47.793C111.83 48.5195 110.893 49.457 110.213 50.6055C109.533 51.7539 109.17 52.9609 109.123 54.2266L106.064 52.2578C106.135 50.4531 106.51 48.7422 107.189 47.125C107.893 45.5078 108.854 44.0781 110.072 42.8359C111.314 41.5703 112.803 40.5859 114.537 39.8828C116.272 39.1562 118.229 38.793 120.408 38.793C122.799 38.793 124.897 39.25 126.701 40.1641C128.529 41.0781 130.053 42.332 131.272 43.9258C132.49 45.5195 133.404 47.3594 134.014 49.4453C134.623 51.5312 134.928 53.7578 134.928 56.125C134.928 58.6094 134.518 60.918 133.697 63.0508C132.9 65.1836 131.74 67.0469 130.217 68.6406C128.717 70.2344 126.912 71.4766 124.803 72.3672C122.693 73.2578 120.326 73.7031 117.701 73.7031C114.982 73.7031 112.51 73.2109 110.283 72.2266C108.08 71.2188 106.182 69.8125 104.588 68.0078C102.994 66.2031 101.764 64.0586 100.897 61.5742C100.053 59.0898 99.6309 56.3711 99.6309 53.418V49.4805C99.6309 45.3555 100.229 41.582 101.424 38.1602C102.643 34.7148 104.389 31.7383 106.662 29.2305C108.936 26.6992 111.678 24.7422 114.889 23.3594C118.1 21.9766 121.721 21.2852 125.752 21.2852ZM152.634 63.1562L160.544 34.9609H166.978L164.903 46.0352L156.993 73H151.614L152.634 63.1562ZM148.626 34.9609L154.286 63.1211L154.813 73H148.485L138.853 34.9609H148.626ZM174.22 62.6641L179.739 34.9609H189.548L179.915 73H173.622L174.22 62.6641ZM167.856 34.9609L175.731 62.9453L176.821 73H171.407L163.497 46.0703L161.493 34.9609H167.856ZM220.719 21.2852H222.195V29.3711H221.598C218.926 29.3711 216.547 29.7695 214.461 30.5664C212.375 31.3633 210.605 32.5 209.152 33.9766C207.723 35.4297 206.621 37.1875 205.848 39.25C205.098 41.3125 204.723 43.6211 204.723 46.1758V54.6836C204.723 56.5117 204.898 58.1289 205.25 59.5352C205.625 60.918 206.152 62.0781 206.832 63.0156C207.535 63.9297 208.355 64.6211 209.293 65.0898C210.23 65.5352 211.285 65.7578 212.457 65.7578C213.559 65.7578 214.555 65.5234 215.445 65.0547C216.359 64.5859 217.133 63.9297 217.766 63.0859C218.422 62.2188 218.914 61.2109 219.242 60.0625C219.594 58.8906 219.77 57.6133 219.77 56.2305C219.77 54.8477 219.594 53.5703 219.242 52.3984C218.914 51.2266 218.422 50.2188 217.766 49.375C217.109 48.5078 216.312 47.8398 215.375 47.3711C214.438 46.9023 213.383 46.668 212.211 46.668C210.617 46.668 209.211 47.043 207.992 47.793C206.797 48.5195 205.859 49.457 205.18 50.6055C204.5 51.7539 204.137 52.9609 204.09 54.2266L201.031 52.2578C201.102 50.4531 201.477 48.7422 202.156 47.125C202.859 45.5078 203.82 44.0781 205.039 42.8359C206.281 41.5703 207.77 40.5859 209.504 39.8828C211.238 39.1562 213.195 38.793 215.375 38.793C217.766 38.793 219.863 39.25 221.668 40.1641C223.496 41.0781 225.02 42.332 226.238 43.9258C227.457 45.5195 228.371 47.3594 228.98 49.4453C229.59 51.5312 229.895 53.7578 229.895 56.125C229.895 58.6094 229.484 60.918 228.664 63.0508C227.867 65.1836 226.707 67.0469 225.184 68.6406C223.684 70.2344 221.879 71.4766 219.77 72.3672C217.66 73.2578 215.293 73.7031 212.668 73.7031C209.949 73.7031 207.477 73.2109 205.25 72.2266C203.047 71.2188 201.148 69.8125 199.555 68.0078C197.961 66.2031 196.73 64.0586 195.863 61.5742C195.02 59.0898 194.598 56.3711 194.598 53.418V49.4805C194.598 45.3555 195.195 41.582 196.391 38.1602C197.609 34.7148 199.355 31.7383 201.629 29.2305C203.902 26.6992 206.645 24.7422 209.855 23.3594C213.066 21.9766 216.688 21.2852 220.719 21.2852ZM247.601 63.1562L255.511 34.9609H261.944L259.87 46.0352L251.96 73H246.581L247.601 63.1562ZM243.593 34.9609L249.253 63.1211L249.78 73H243.452L233.819 34.9609H243.593ZM269.186 62.6641L274.706 34.9609H284.515L274.882 73H268.589L269.186 62.6641ZM262.823 34.9609L270.698 62.9453L271.788 73H266.374L258.464 46.0703L256.46 34.9609H262.823ZM324.756 42.6602V50.8867H298.037V42.6602H324.756ZM301.166 21.8125V73H290.619V21.8125H301.166ZM332.279 21.8125V73H321.768V21.8125H332.279Z" fill="white"/>
</svg>
